<svg width="47" height="21" viewBox="0 0 47 21" fill="none" xmlns="http://www.w3.org/2000/svg">
<path d="M15.8145 21H12.3555L3.48242 6.87695V21H0.0234375V1.09375H3.48242L12.3828 15.2715V1.09375H15.8145V21ZM23.1152 21H19.793V6.20703H23.1152V21ZM19.5879 2.36523C19.5879 1.85482 19.7474 1.43099 20.0664 1.09375C20.3945 0.75651 20.8594 0.587891 21.4609 0.587891C22.0625 0.587891 22.5273 0.75651 22.8555 1.09375C23.1836 1.43099 23.3477 1.85482 23.3477 2.36523C23.3477 2.86654 23.1836 3.28581 22.8555 3.62305C22.5273 3.95117 22.0625 4.11523 21.4609 4.11523C20.8594 4.11523 20.3945 3.95117 20.0664 3.62305C19.7474 3.28581 19.5879 2.86654 19.5879 2.36523ZM29.8281 6.20703L29.9238 7.91602C31.0176 6.5944 32.4531 5.93359 34.2305 5.93359C37.3112 5.93359 38.8789 7.69727 38.9336 11.2246V21H35.6113V11.416C35.6113 10.4772 35.4062 9.78451 34.9961 9.33789C34.5951 8.88216 33.9342 8.6543 33.0137 8.6543C31.6738 8.6543 30.6758 9.26042 30.0195 10.4727V21H26.6973V6.20703H29.8281ZM45.8652 21H42.543V6.20703H45.8652V21ZM42.3379 2.36523C42.3379 1.85482 42.4974 1.43099 42.8164 1.09375C43.1445 0.75651 43.6094 0.587891 44.2109 0.587891C44.8125 0.587891 45.2773 0.75651 45.6055 1.09375C45.9336 1.43099 46.0977 1.85482 46.0977 2.36523C46.0977 2.86654 45.9336 3.28581 45.6055 3.62305C45.2773 3.95117 44.8125 4.11523 44.2109 4.11523C43.6094 4.11523 43.1445 3.95117 42.8164 3.62305C42.4974 3.28581 42.3379 2.86654 42.3379 2.36523Z" fill="url(#paint0_linear)"/>
<defs>
<linearGradient id="paint0_linear" x1="1.33333" y1="9.22414" x2="36.3734" y2="14.655" gradientUnits="userSpaceOnUse">
<stop stop-color="#AA3838"/>
<stop offset="1" stop-color="#285A94" stop-opacity="0.88"/>
</linearGradient>
</defs>
</svg>
